<?xml version="1.0" standalone="no"?>
<!DOCTYPE svg PUBLIC "-//W3C//DTD SVG 20010904//EN"
 "http://www.w3.org/TR/2001/REC-SVG-20010904/DTD/svg10.dtd">
<svg version="1.0" xmlns="http://www.w3.org/2000/svg"
 width="2800.000000pt" height="2800.000000pt" viewBox="0 0 2800.000000 2800.000000"
 preserveAspectRatio="xMidYMid meet">
<metadata>
Created by potrace 1.14, written by Peter Selinger 2001-2017
</metadata>
<g transform="translate(0.000000,2800.000000) scale(0.100000,-0.100000)"
fill="#000000" stroke="none">
<path d="M15190 27134 c-113 -22 -358 -117 -376 -145 -6 -12 -5 -12 8 -1 49
39 281 102 378 102 86 0 220 -29 299 -66 293 -135 554 -515 689 -1001 11 -40
17 -73 14 -73 -4 0 -18 17 -32 37 -49 73 -234 249 -324 308 -104 69 -239 126
-351 149 -44 9 -107 26 -140 37 -148 51 -285 71 -371 54 l-39 -7 70 -18 c39
-10 86 -25 105 -33 l35 -15 -30 -1 c-60 -2 -232 -52 -312 -90 -82 -39 -173
-97 -246 -155 -36 -28 -39 -29 -49 -13 -5 10 -22 33 -36 50 -15 18 -42 52 -61
76 l-34 44 29 24 c127 102 358 226 504 270 86 25 109 28 240 28 124 0 156 -4
220 -24 86 -27 159 -62 210 -99 l35 -27 -23 30 c-61 78 -263 193 -387 220
-114 26 -292 17 -405 -20 -144 -46 -282 -122 -439 -243 l-84 -64 -26 21 c-35
28 -153 106 -188 125 -15 8 -50 38 -78 66 -103 107 -242 187 -371 216 -113 25
-372 30 -474 10 -143 -29 -265 -96 -413 -230 -110 -99 -185 -224 -267 -442
-66 -176 -108 -467 -96 -670 6 -119 18 -167 47 -200 30 -32 25 -40 -47 -70
-18 -8 -25 56 -25 234 0 286 72 825 130 975 6 15 9 27 7 27 -11 0 -119 -155
-154 -220 -52 -98 -85 -191 -137 -380 l-42 -155 -31 61 c-77 153 -248 375
-378 493 -152 137 -367 243 -569 282 -98 19 -369 16 -461 -4 -263 -59 -492
-214 -659 -445 -33 -46 -77 -107 -98 -135 -41 -55 -101 -158 -113 -192 -3 -11
11 9 33 45 54 90 95 151 99 147 2 -2 -10 -37 -26 -79 -84 -215 -110 -400 -91
-633 6 -77 18 -176 27 -220 20 -100 21 -114 9 -117 -13 -3 -31 53 -55 167 -70
330 -75 608 -20 994 27 189 46 278 66 309 9 13 11 21 5 18 -14 -9 -14 3 2 50
8 22 17 53 21 69 l7 30 -21 -30 c-12 -16 -46 -79 -77 -140 -30 -60 -79 -139
-107 -175 -29 -36 -60 -78 -70 -93 -10 -16 -19 -27 -21 -25 -2 2 14 66 35 143
22 77 39 145 39 150 0 17 -77 -204 -109 -315 -16 -58 -52 -158 -79 -222 -83
-196 -117 -364 -130 -633 l-7 -150 -8 90 c-4 50 -11 117 -15 150 l-7 60 -12
-93 c-22 -164 -32 -334 -25 -442 l6 -105 -41 -22 c-26 -13 -44 -18 -48 -12
-14 23 -23 290 -13 414 22 293 103 694 166 820 22 43 3 20 -51 -60 -25 -38
-46 -67 -46 -63 0 45 136 338 210 453 37 57 43 71 22 48 -57 -61 -210 -272
-251 -347 -32 -57 -52 -80 -84 -99 -132 -78 -248 -243 -342 -487 -18 -47 -37
-103 -41 -125 -7 -37 -8 -38 -15 -15 -10 35 -10 177 1 230 4 25 7 46 6 47 -9
10 -80 -208 -94 -287 -16 -95 -32 -122 -32 -57 l-1 32 -24 -46 c-13 -25 -32
-74 -41 -110 -31 -110 -23 -443 13 -574 3 -11 2 -17 -2 -13 -11 11 -61 203
-91 353 -15 72 -30 134 -34 138 -4 5 -13 -31 -20 -79 -10 -68 -10 -113 -1
-203 13 -128 45 -312 67 -379 8 -23 14 -46 14 -50 0 -16 -63 88 -99 163 -63
132 -65 143 -51 258 7 56 20 118 28 137 8 19 14 45 13 58 -2 21 10 70 28 117
5 11 14 38 21 60 11 37 92 205 137 285 38 67 156 225 212 284 55 58 55 59 14
29 -170 -121 -412 -441 -502 -665 -18 -46 -36 -68 -94 -117 -40 -33 -110 -99
-156 -146 -46 -47 -85 -84 -87 -82 -2 2 12 30 31 63 l35 59 -79 -83 c-92 -98
-142 -178 -178 -287 -23 -68 -27 -98 -27 -197 l-1 -118 -55 -10 c-146 -29
-295 -102 -336 -165 -28 -43 -14 -55 68 -55 57 -1 69 -3 55 -11 -11 -6 -80
-12 -155 -13 -129 -2 -143 -4 -243 -38 -102 -35 -226 -97 -279 -139 -14 -11
11 -2 55 20 152 75 224 101 325 120 73 13 150 22 150 17 0 -2 -42 -18 -93 -34
-98 -32 -327 -132 -399 -175 -143 -84 -233 -182 -211 -230 9 -20 1 -30 -78
-100 -49 -43 -86 -70 -82 -60 31 86 170 291 255 376 27 27 43 45 36 41 -7 -4
5 12 27 35 l40 42 -45 -7 c-74 -11 -167 -61 -244 -132 -173 -159 -288 -395
-272 -563 5 -55 3 -70 -13 -90 -38 -49 -91 -129 -86 -129 3 0 -3 -17 -14 -37
-10 -21 -31 -76 -45 -124 -45 -146 -31 -308 36 -416 26 -44 10 -41 -52 8 -93
73 -114 140 -88 269 23 111 54 183 105 247 l46 58 -51 -49 c-60 -58 -100 -129
-137 -245 -32 -98 -30 -152 9 -228 36 -72 136 -148 275 -208 42 -18 105 -46
141 -63 86 -40 193 -71 315 -92 l100 -17 -2 -29 -2 -29 10 28 c10 24 29 38 29
20 0 -18 -44 -112 -50 -108 -4 3 -8 -5 -8 -18 0 -12 -9 -49 -21 -82 -38 -106
-89 -318 -106 -441 -21 -150 -16 -491 9 -629 18 -101 69 -272 96 -325 10 -19
29 -78 43 -131 44 -163 131 -325 259 -476 42 -49 93 -125 117 -173 49 -95 72
-131 111 -175 15 -16 36 -55 45 -85 29 -88 60 -154 92 -191 16 -18 49 -71 73
-116 24 -46 52 -91 63 -100 15 -13 18 -14 12 -3 -5 8 6 3 24 -12 44 -37 51
-35 35 10 -8 23 -13 84 -14 162 l0 125 52 -3 c49 -3 52 -2 34 13 -11 8 -25 15
-31 15 -7 0 -20 9 -30 20 -16 17 -16 27 -6 102 19 139 40 222 108 428 56 172
149 376 248 546 66 114 241 381 256 389 5 4 9 -16 9 -47 1 -198 107 -535 247
-786 37 -67 53 -78 29 -21 -26 64 -55 204 -70 343 -11 97 -16 236 -16 464 l0
326 53 70 c30 39 75 101 102 138 27 37 50 67 51 65 1 -1 -1 -58 -5 -125 -11
-163 3 -345 38 -517 42 -205 135 -394 276 -563 41 -50 79 -92 83 -94 4 -2 26
-28 49 -58 52 -69 129 -143 213 -207 81 -61 120 -84 193 -114 43 -17 63 -32
79 -59 47 -77 155 -206 268 -319 126 -125 278 -236 422 -308 64 -32 101 -62
235 -193 149 -147 185 -189 234 -278 79 -140 294 -376 475 -520 71 -57 241
-166 326 -209 51 -26 115 -62 142 -80 53 -36 221 -122 274 -141 26 -9 32 -16
32 -40 0 -46 120 -398 149 -437 4 -5 18 -37 31 -70 13 -33 26 -64 30 -70 4 -5
17 -37 30 -70 13 -33 26 -64 30 -70 8 -11 100 -228 129 -305 l19 -51 -36 6
c-21 3 -62 10 -92 16 -112 19 -230 40 -410 70 -323 53 -811 137 -1755 299
-1002 173 -1242 214 -1595 274 -642 110 -716 125 -649 127 173 5 334 -15 599
-76 36 -9 111 -18 167 -21 99 -5 102 -4 118 19 41 63 7 147 -132 336 -115 156
-178 211 -241 211 -10 0 -31 14 -47 30 -16 17 -54 47 -83 68 l-54 37 -137 -1
c-295 -1 -813 -63 -901 -108 l-30 -14 0 36 c0 20 7 75 15 122 9 47 27 148 41
225 23 131 63 333 149 755 20 96 45 203 56 238 24 71 20 92 -14 92 -21 0 -27
-9 -46 -72 -25 -84 -114 -515 -200 -968 -35 -183 -74 -440 -97 -635 -8 -77
-18 -142 -20 -145 -15 -14 -44 30 -93 141 -84 189 -66 174 -212 171 -68 -1
-126 -6 -131 -10 -4 -4 4 -47 18 -97 13 -49 36 -144 51 -210 l27 -120 1 -1070
2 -1070 -23 -30 c-105 -138 -270 -336 -620 -747 -353 -413 -501 -605 -562
-726 -31 -64 -36 -86 -40 -160 -8 -169 59 -333 191 -465 104 -105 196 -165
427 -281 102 -50 217 -113 257 -139 90 -60 188 -164 222 -236 24 -51 26 -66
25 -176 -2 -186 -57 -346 -182 -535 -99 -150 -121 -190 -116 -205 4 -8 11 -15
18 -15 15 0 175 247 225 346 22 44 52 120 67 169 24 79 27 107 28 235 l1 145
-34 70 c-39 80 -130 176 -227 242 -34 23 -147 84 -253 137 -213 107 -342 190
-422 271 -144 146 -215 372 -167 526 29 90 213 338 447 604 14 17 47 55 71 85
25 30 57 68 71 85 14 16 57 66 96 110 85 98 391 462 453 539 41 51 46 54 52
33 4 -12 10 -120 13 -240 7 -208 8 -220 30 -245 20 -24 30 -26 91 -26 100 0
163 10 186 31 45 40 52 71 56 235 4 154 4 156 28 162 30 8 70 61 94 125 26 71
147 301 218 414 66 105 124 227 143 300 l11 47 127 0 c204 0 391 31 649 105
159 46 235 85 165 85 -14 0 -94 -13 -177 -29 -83 -16 -185 -34 -226 -41 -67
-10 -117 -19 -200 -36 l-25 -6 22 24 c24 26 91 153 102 195 10 36 27 40 228
47 92 4 231 11 308 17 134 9 143 9 219 -14 78 -23 79 -24 60 -43 -11 -10 -48
-39 -83 -64 -34 -25 -72 -53 -84 -62 -21 -17 -21 -17 13 -6 44 14 75 27 175
71 44 19 98 40 120 46 22 6 49 17 60 24 40 27 69 26 209 -8 160 -40 242 -53
233 -38 -8 13 -113 63 -132 63 -7 0 -16 4 -20 9 -7 12 56 -5 110 -29 71 -31
92 -32 30 0 l-60 30 190 -5 c847 -22 904 -25 1095 -55 233 -37 293 -43 735
-75 198 -14 430 -32 515 -39 85 -8 236 -20 335 -26 350 -23 338 -21 353 -53 7
-15 24 -94 38 -175 13 -81 33 -191 45 -245 17 -79 20 -121 16 -210 -2 -62 0
-190 6 -286 9 -155 13 -174 29 -179 10 -2 18 -9 18 -15 0 -21 53 -87 87 -109
l35 -21 -32 -14 c-18 -7 -50 -16 -71 -19 -40 -7 -51 -20 -24 -31 9 -3 44 8 78
25 l62 31 143 -58 c78 -32 148 -66 155 -75 8 -11 56 -30 123 -47 60 -17 125
-35 145 -40 43 -13 119 4 119 26 0 7 -3 15 -7 17 -5 2 -25 24 -46 51 -58 71
-169 367 -207 552 -7 33 -21 87 -31 120 -37 126 -49 456 -23 632 l7 42 66 -5
c36 -2 122 -11 191 -19 69 -8 172 -19 230 -25 227 -24 499 -70 625 -106 28 -8
100 -28 160 -45 117 -32 211 -63 260 -85 48 -21 145 -59 213 -84 34 -12 61
-28 59 -34 -2 -6 -46 -35 -98 -65 -52 -29 -131 -75 -177 -102 -45 -27 -85 -49
-87 -49 -3 0 -38 -20 -78 -44 -39 -24 -108 -63 -152 -87 -44 -24 -152 -88
-240 -142 -88 -55 -175 -109 -193 -120 -65 -39 -22 -28 60 16 45 24 128 68
183 97 55 29 125 67 155 85 30 18 84 48 120 67 36 19 124 68 195 108 72 40
182 102 245 138 142 79 309 180 460 277 63 40 135 86 160 101 128 78 242 156
237 161 -3 3 -50 -22 -104 -54 -54 -33 -139 -83 -190 -112 l-92 -52 -73 30
c-40 16 -140 55 -223 86 -82 32 -179 68 -215 82 -36 14 -76 28 -90 33 -14 4
-83 29 -155 55 -239 86 -551 176 -725 210 -41 8 -95 19 -120 24 -25 5 -74 15
-110 21 -36 6 -94 17 -130 25 -86 18 -165 32 -217 40 l-41 6 19 57 c10 31 23
66 29 77 5 11 18 43 29 70 10 28 42 93 71 145 29 52 61 111 72 130 19 36 86
122 100 128 4 2 8 8 8 14 0 6 17 27 38 47 21 21 51 55 68 77 37 49 202 216
273 274 29 25 60 51 68 59 12 11 37 14 112 10 266 -12 466 1 599 38 60 17 66
28 20 37 -43 8 -24 27 34 33 34 4 50 0 78 -19 40 -27 93 -48 122 -48 11 0 32
-8 46 -18 56 -39 149 -85 200 -98 48 -13 162 -81 221 -133 13 -12 66 -41 117
-66 87 -42 181 -111 264 -194 20 -20 64 -52 99 -71 35 -19 71 -43 80 -54 9
-10 22 -24 29 -31 6 -8 12 -17 12 -20 0 -4 16 -26 35 -49 29 -36 33 -48 29
-80 -2 -21 -9 -46 -14 -56 -5 -9 -7 -20 -4 -23 4 -3 -4 -20 -16 -36 -22 -32
-21 -34 16 -32 12 1 24 -5 27 -13 4 -9 13 -16 22 -16 19 0 19 -3 -5 -49 -21
-41 -32 -70 -85 -216 -18 -49 -45 -121 -60 -160 -15 -38 -32 -89 -37 -112 -5
-24 -14 -43 -20 -43 -6 0 -8 -7 -4 -15 3 -8 2 -15 -3 -15 -4 0 -13 -24 -20
-52 l-11 -53 -98 6 c-53 3 -105 9 -114 13 -10 5 -18 5 -18 1 0 -21 76 -65 112
-65 13 0 39 -5 59 -10 l36 -10 -12 -48 c-14 -52 -12 -62 13 -62 15 0 264 -48
414 -80 40 -9 59 -18 63 -31 4 -10 22 -42 42 -70 19 -28 36 -57 38 -63 1 -6
43 -54 94 -106 102 -106 140 -172 185 -325 45 -154 60 -279 60 -505 0 -233
-15 -374 -69 -615 -44 -199 -84 -322 -156 -483 -90 -199 -118 -242 -400 -631
-20 -28 -61 -81 -91 -118 -59 -74 -221 -280 -253 -324 -122 -164 -377 -471
-484 -584 -65 -69 -106 -106 -225 -202 -71 -58 -285 -179 -386 -218 -163 -64
-345 -92 -498 -76 -48 5 -174 31 -280 57 -146 35 -196 44 -204 36 -20 -20 4
-33 159 -84 204 -67 314 -88 461 -88 195 0 318 33 532 141 301 152 512 345
830 758 86 113 334 426 340 431 6 5 153 191 253 320 228 294 311 445 427 780
42 118 91 360 112 550 3 21 15 9 87 -85 90 -117 111 -143 292 -355 179 -209
187 -227 154 -357 -22 -89 -37 -353 -40 -723 -2 -184 -8 -402 -14 -485 -21
-299 -11 -589 30 -832 37 -222 139 -492 247 -653 65 -96 77 -125 102 -235 25
-111 75 -269 94 -300 7 -11 26 -53 41 -93 25 -64 30 -71 37 -51 8 22 9 22 22
3 7 -10 24 -50 37 -89 23 -71 29 -81 62 -114 16 -16 17 -24 8 -57 -15 -52 -37
-163 -51 -254 -6 -41 -15 -99 -21 -129 -5 -30 -9 -67 -9 -83 0 -21 -6 -31 -25
-38 -31 -12 -34 -54 -7 -84 17 -19 18 -30 9 -131 -16 -175 6 -431 59 -678 39
-182 173 -500 267 -634 19 -26 36 -55 40 -63 3 -8 39 -58 81 -109 42 -52 76
-101 76 -108 0 -30 -68 -357 -94 -453 -8 -30 -24 -89 -34 -130 -26 -98 -61
-208 -77 -245 -8 -16 -28 -65 -45 -109 -27 -68 -77 -169 -100 -201 -4 -5 -31
-55 -60 -110 -29 -55 -63 -116 -75 -135 -12 -19 -47 -82 -79 -140 -31 -58 -61
-112 -66 -120 -6 -8 -60 -103 -121 -210 -114 -201 -126 -220 -274 -475 -155
-267 -227 -389 -270 -460 -23 -38 -91 -152 -151 -253 -60 -100 -124 -208 -143
-240 -52 -86 -152 -248 -270 -435 -58 -92 -119 -189 -135 -215 -46 -74 -346
-525 -431 -647 -41 -60 -92 -135 -112 -165 -55 -83 -261 -364 -404 -550 -238
-310 -526 -637 -776 -880 -222 -216 -372 -360 -463 -445 -222 -206 -214 -199
-424 -385 -28 -25 -66 -60 -86 -77 l-35 -32 7068 -1 7067 0 0 1019 0 1020
-163 163 c-293 292 -619 600 -880 832 -42 37 -95 82 -116 100 -22 17 -93 74
-158 127 -124 101 -411 321 -527 404 -190 138 -249 179 -461 319 -286 189
-448 290 -685 426 -57 33 -166 106 -285 191 -264 189 -383 253 -720 384 -477
187 -629 271 -1214 672 -374 257 -541 355 -1141 668 -286 149 -608 327 -895
494 -171 100 -281 136 -377 125 -53 -6 -54 -6 -113 44 -83 69 -144 150 -215
284 -101 193 -131 227 -240 274 -53 23 -83 28 -165 31 -88 4 -109 1 -174 -21
l-75 -26 -25 24 c-14 13 -65 53 -114 89 -48 35 -109 84 -135 108 -26 24 -79
74 -118 110 -39 36 -97 81 -128 99 -75 42 -149 116 -214 214 -84 125 -128 215
-194 406 -22 63 -49 129 -59 147 -29 47 -116 112 -166 124 -23 6 -43 14 -43
18 1 74 36 375 55 465 53 250 87 367 117 396 7 8 31 43 52 78 21 35 64 98 95
140 56 76 163 255 216 362 22 43 91 118 319 345 160 160 343 336 406 391 127
111 347 336 477 487 132 153 407 429 533 537 143 120 287 263 362 355 31 39
68 83 82 99 l26 29 0 -40 c0 -37 -3 -41 -32 -49 l-32 -10 56 -32 c46 -26 62
-30 82 -22 33 12 36 28 28 145 l-7 100 75 90 c41 50 85 103 96 119 l21 29 5
-31 c5 -33 -1 -39 -19 -21 -7 7 -8 -5 -2 -42 9 -54 2 -68 -28 -69 -15 0 -17
-26 -3 -35 6 -3 10 0 10 8 0 13 18 23 73 41 9 3 17 14 17 25 0 11 9 22 19 26
10 3 24 19 31 35 13 31 11 56 -10 132 -13 44 -13 48 12 80 15 19 48 75 74 124
26 49 73 119 103 155 109 129 204 260 342 469 335 508 536 886 719 1350 10 25
72 151 139 280 66 129 142 285 169 345 27 61 59 132 71 159 13 27 43 101 67
165 25 64 58 150 74 191 16 41 45 124 64 183 20 59 55 152 79 205 152 332 258
723 303 1112 23 199 30 863 14 1245 -15 346 -14 329 -30 481 l-13 121 40 94
c22 52 46 111 52 131 7 21 16 40 20 42 16 10 -37 -361 -65 -453 -7 -25 -12
-47 -9 -49 6 -6 42 123 69 244 27 123 52 275 61 379 4 39 17 124 30 190 41
207 50 299 49 555 0 414 -48 651 -216 1070 -77 192 -201 397 -339 560 -113
134 -173 191 -365 344 -1 0 -12 69 -24 151 -45 312 -153 635 -279 839 -48 78
-150 206 -252 317 -46 51 -96 118 -114 152 -64 128 -159 250 -334 430 -104
107 -224 193 -357 257 -107 51 -158 65 -327 91 -195 31 -390 31 -547 0 -113
-22 -214 -46 -245 -57 -12 -5 -26 17 -61 92 -111 239 -128 273 -176 349 -95
149 -215 274 -348 363 -47 31 -98 69 -113 84 -39 39 -163 138 -217 175 -121
82 -311 158 -460 184 -96 16 -264 16 -360 0 -169 -30 -371 -106 -487 -186 -21
-14 -41 -25 -45 -25 -4 0 -29 42 -54 93 -126 253 -242 403 -381 496 -142 94
-210 123 -315 131 -53 4 -117 16 -148 28 -139 52 -223 51 -392 -4 -165 -54
-383 -232 -513 -419 l-53 -75 -10 27 c-6 16 -19 55 -28 88 -34 122 -117 302
-187 405 -77 113 -223 254 -343 329 -26 17 -91 45 -143 62 -78 25 -116 32
-201 34 -58 2 -116 1 -130 -1z m-1584 -349 c45 -15 97 -37 115 -48 l34 -22
-120 -6 c-165 -9 -344 -60 -456 -129 -27 -16 -52 -30 -55 -30 -3 0 -32 -18
-64 -40 -220 -149 -369 -347 -490 -648 l-38 -94 -7 107 c-4 58 -5 128 -1 155
10 78 52 194 121 335 54 111 73 140 132 198 80 79 206 175 242 184 15 3 35 12
46 18 60 37 175 55 335 51 104 -3 138 -8 206 -31z m309 -95 c10 -11 16 -20 13
-20 -3 0 -13 9 -23 20 -10 11 -16 20 -13 20 3 0 13 -9 23 -20z m3230 -30 c17
-4 22 -8 12 -9 -88 -6 -318 -128 -471 -250 -159 -127 -239 -215 -351 -382 -30
-45 -56 -75 -59 -68 -7 26 -36 196 -36 213 0 38 271 291 399 370 85 54 181 96
258 115 79 20 194 25 248 11z m231 -89 l49 -33 -35 31 c-67 58 28 31 159 -46
140 -83 238 -187 333 -353 63 -112 138 -259 138 -273 0 -8 -22 -31 -48 -50
l-48 -34 -37 57 c-51 79 -168 202 -241 254 -110 78 -229 127 -369 152 -99 17
-314 3 -430 -28 -150 -40 -314 -141 -472 -291 -43 -42 -81 -74 -83 -72 -9 9
139 206 213 284 170 177 394 337 551 392 163 57 244 60 320 10z m-3470 -250
c16 -5 62 -20 102 -32 39 -12 72 -25 72 -28 0 -3 -13 -21 -28 -40 l-28 -33
-40 20 c-59 29 -159 53 -254 59 -69 4 -101 1 -170 -17 -129 -34 -288 -116
-386 -199 -17 -14 -42 -35 -55 -45 -13 -10 -33 -26 -44 -35 -35 -29 42 63 97
115 118 113 338 222 493 244 67 10 198 5 241 -9z m1434 -111 c102 -10 218 -45
335 -101 58 -27 92 -55 193 -158 108 -109 121 -126 108 -139 -13 -13 -25 -7
-103 52 -139 106 -334 190 -510 221 -49 8 -145 15 -218 15 -146 0 -268 -24
-409 -78 -44 -17 -83 -29 -88 -26 -18 11 -6 31 40 61 120 80 285 141 412 153
122 10 135 11 240 0z m-1102 -31 c36 -26 46 -42 67 -107 23 -70 26 -64 8 19
l-6 32 32 -19 c18 -10 39 -27 48 -36 15 -16 14 -21 -12 -59 -21 -33 -29 -39
-37 -28 -8 11 -9 11 -5 -3 3 -9 0 -24 -8 -34 -12 -17 -15 -16 -41 16 -15 19
-61 68 -102 108 l-75 73 33 34 c19 19 39 35 45 35 6 0 30 -14 53 -31z m-3459
-32 c-118 -94 -154 -125 -204 -178 -86 -92 -195 -242 -195 -269 0 -12 -21 -30
-57 -50 -32 -18 -69 -40 -82 -48 -23 -16 -23 -16 -16 19 13 61 66 178 116 254
54 84 168 181 259 224 77 35 208 70 179 48z m8156 -78 c136 -24 355 -113 465
-189 37 -26 40 -31 19 -26 -15 3 -73 11 -128 17 -162 17 -325 -13 -473 -87
-60 -30 -77 -34 -146 -34 -89 0 -209 -27 -290 -65 -29 -14 -55 -25 -57 -25 -2
0 -26 -13 -52 -30 -26 -16 -52 -30 -58 -30 -6 0 -24 43 -39 95 -16 52 -40 118
-53 147 -19 40 -21 53 -11 60 39 26 134 69 213 96 252 86 411 105 610 71z
m-5027 -81 c-3 -9 -34 -14 -94 -16 -56 -2 -85 1 -79 7 15 14 43 19 113 20 47
1 63 -2 60 -11z m156 -22 c67 -24 121 -54 113 -62 -2 -3 -17 1 -33 7 -16 6
-64 19 -107 29 -85 20 -92 23 -82 39 10 17 38 13 109 -13z m3207 -30 c125 -38
293 -155 392 -272 17 -21 17 -21 -41 -19 -51 2 -65 8 -112 43 -131 99 -342
192 -473 207 -69 9 -64 19 18 38 79 19 159 20 216 3z m838 -265 c23 -68 41
-124 39 -125 -2 0 -19 -16 -39 -34 l-36 -33 -32 93 c-18 51 -48 121 -67 155
-19 34 -34 65 -34 70 0 4 21 20 48 35 l47 27 16 -32 c9 -18 35 -88 58 -156z
m-8960 117 c-51 -130 -78 -213 -98 -300 -45 -201 -53 -283 -57 -581 -1 -159
-5 -291 -8 -294 -13 -13 -21 92 -21 287 0 228 15 352 71 600 13 58 26 116 29
130 6 25 -62 -103 -102 -195 -28 -64 -67 -184 -83 -258 -17 -74 -25 -66 -10
10 25 125 90 306 161 446 26 51 127 207 134 207 2 0 -5 -24 -16 -52z m6896
-39 c26 -33 44 -63 41 -67 -10 -10 -119 104 -112 117 13 20 24 12 71 -50z
m1065 29 c121 -38 350 -155 350 -178 0 -4 -11 -15 -25 -24 -23 -15 -26 -14
-89 33 -87 66 -163 109 -271 155 -49 22 -92 40 -94 42 -9 9 67 -8 129 -28z
m-4612 -99 c-4 -72 -11 -100 -22 -88 -2 2 -1 48 2 103 3 71 8 94 15 81 5 -10
7 -53 5 -96z m6708 90 c243 -34 445 -122 625 -273 66 -55 195 -201 221 -250
10 -18 8 -18 -23 3 -56 36 -150 82 -224 109 -65 24 -83 26 -250 27 l-180 1
-65 49 c-35 28 -105 88 -154 134 -97 91 -181 138 -290 162 -50 11 -55 14 -35
21 65 24 260 33 375 17z m-468 -129 c88 -22 186 -60 252 -98 84 -47 259 -165
264 -177 6 -16 -148 -56 -314 -84 -69 -11 -148 -28 -177 -37 -52 -17 -54 -16
-130 9 l-78 25 -21 84 c-32 124 -55 200 -60 195 -3 -3 5 -40 16 -83 27 -98 39
-154 40 -177 0 -14 -5 -16 -26 -11 -14 4 -72 12 -127 18 l-101 11 -18 80 c-9
44 -20 91 -24 105 -5 24 0 29 83 67 125 59 129 59 142 26 l11 -28 -6 31 c-5
30 -3 31 48 46 74 22 137 21 226 -2z m-1011 -48 c13 -15 42 -58 65 -95 122
-193 121 -192 89 -221 -18 -16 -21 -13 -79 81 -33 54 -92 135 -131 179 -38 45
-67 85 -63 89 4 3 27 4 52 0 31 -5 52 -15 67 -33z m300 -101 l22 -38 -23 -22
-23 -22 -28 83 c-15 46 -30 90 -32 98 -7 22 59 -55 84 -99z m-360 -65 c39 -42
82 -91 95 -109 l23 -32 -55 40 c-30 22 -64 48 -75 57 -11 9 -65 48 -119 85
-55 37 -101 73 -103 78 -2 6 9 18 24 27 26 16 28 15 82 -27 31 -23 88 -77 128
-119z m519 -33 c9 -43 17 -82 18 -86 1 -7 -101 -48 -148 -60 -9 -2 -36 77 -36
110 0 20 45 63 54 52 2 -2 11 -17 20 -34 17 -30 17 -20 0 35 -5 14 2 24 27 39
19 12 37 21 41 21 4 0 14 -35 24 -77z m1454 -63 c195 -21 375 -113 526 -272
58 -61 130 -156 126 -166 -1 -4 -23 -14 -50 -23 l-47 -16 -85 81 c-166 159
-382 283 -585 336 -48 13 -85 35 -85 51 0 4 21 10 48 12 26 2 48 4 48 5 1 1
48 -3 104 -8z m-1696 -99 l25 -48 -24 -23 -24 -22 -20 41 c-12 22 -21 46 -21
52 0 11 28 49 36 49 2 0 15 -22 28 -49z m2154 -6 c41 -55 44 -75 5 -32 -20 21
-57 87 -50 87 2 0 23 -25 45 -55z m-633 -118 c49 -13 66 -23 98 -59 41 -47 97
-123 97 -132 0 -3 -27 -6 -59 -6 -48 0 -76 8 -146 40 -48 22 -119 50 -159 61
-85 26 -219 96 -210 111 10 15 305 3 379 -15z m-10078 -19 c-3 -7 -5 -2 -5 12
0 14 2 19 5 13 2 -7 2 -19 0 -25z m8863 -77 c0 -70 -18 -82 -77 -50 -57 31
-98 68 -87 79 9 9 54 15 127 18 l37 2 0 -49z m110 43 c0 -8 -32 -33 -42 -34
-5 0 -8 9 -8 20 0 15 7 20 25 20 14 0 25 -3 25 -6z m1426 -58 c90 -44 216
-120 267 -163 l29 -23 -49 -21 c-26 -11 -76 -33 -109 -49 l-61 -28 -40 72
c-23 39 -36 74 -31 77 5 3 3 9 -5 12 -13 5 -71 87 -111 155 -13 22 18 13 110
-32z m-11486 -100 c0 -7 -28 -42 -62 -78 -72 -74 -116 -155 -156 -285 -24 -80
-26 -103 -27 -250 l0 -162 -45 3 c-41 4 -46 7 -57 37 -26 73 -11 249 31 366
18 50 136 208 233 311 70 73 83 83 83 58z m11376 -4 c17 -11 75 -95 69 -100
-4 -4 -125 72 -159 100 -13 10 75 10 90 0z m1896 -143 c159 -80 415 -322 544
-513 51 -76 63 -107 29 -73 -8 9 -51 41 -95 72 -44 31 -80 60 -80 65 0 10
-111 150 -169 213 -82 90 -243 219 -343 276 -32 18 -58 34 -58 36 0 5 94 -37
172 -76z m-570 31 c172 -29 292 -78 445 -181 76 -52 216 -169 210 -176 -15
-14 -119 28 -227 92 -69 41 -170 94 -225 118 -55 25 -130 58 -166 75 -60 28
-209 75 -269 85 -14 2 7 5 47 6 39 0 122 -8 185 -19z m743 -457 c28 -13 73
-70 182 -227 45 -65 60 -103 19 -47 -43 58 -138 164 -211 235 -71 69 -68 77
10 39z m455 -292 c0 -4 30 -38 68 -76 190 -197 295 -381 403 -709 54 -164 115
-476 92 -476 -4 0 -21 9 -38 20 -16 12 -60 37 -97 56 -59 32 -69 41 -89 87
-15 36 -26 94 -36 187 -23 230 -66 377 -134 463 -16 20 -48 80 -70 133 -49
119 -116 253 -169 339 -22 36 -40 68 -40 71 0 3 25 -16 55 -41 30 -26 55 -50
55 -54z m195 -553 c36 -112 84 -348 71 -348 -12 0 -28 54 -42 135 -18 108 -42
216 -59 265 -8 23 -10 38 -5 35 5 -3 20 -42 35 -87z m-1502 13 c4 -4 -11 -16
-33 -26 -40 -18 -41 -18 -59 1 -11 10 -22 29 -25 41 -7 21 -7 21 51 6 32 -8
62 -18 66 -22z m194 -78 c149 -75 297 -174 468 -313 97 -79 225 -200 225 -211
0 -5 -13 -9 -28 -9 -19 0 -39 11 -63 36 -47 50 -254 208 -374 287 -93 61 -352
197 -402 212 -30 9 -29 19 5 32 40 17 82 9 169 -34z m495 -89 c149 -95 408
-317 408 -349 0 -10 -69 -50 -75 -43 -1 2 -37 46 -80 98 -82 100 -207 228
-290 298 -27 23 -47 41 -43 42 4 0 40 -21 80 -46z m468 -409 l23 -25 -59 0
c-54 0 -84 11 -84 31 0 9 26 16 66 18 21 1 38 -7 54 -24z m-15693 -26 c7 -7 3
-31 -14 -82 -25 -71 -27 -138 -8 -232 6 -27 1 -35 -49 -78 l-56 -48 0 78 c1
92 11 141 50 244 52 135 55 140 77 118z m15499 -80 c19 -22 19 -22 -3 -10 -24
12 -39 31 -25 31 5 0 17 -10 28 -21z m304 -30 c49 -54 79 -105 58 -96 -9 3
-44 11 -78 18 -58 11 -64 15 -101 65 -21 29 -39 55 -39 57 0 2 28 2 63 -1 58
-3 64 -6 97 -43z m598 -222 c18 -18 32 -41 32 -54 0 -23 0 -23 -57 10 -32 17
-66 37 -75 42 -10 6 -20 29 -24 54 l-7 44 49 -33 c27 -18 64 -47 82 -63z m207
-205 c-9 -9 -125 94 -125 113 0 15 15 4 65 -45 35 -35 63 -66 60 -68z m-15841
55 c18 -13 17 -15 -3 -54 -11 -23 -34 -76 -51 -118 -47 -118 -55 -128 -104
-119 -59 10 -191 60 -261 99 -55 31 -165 129 -154 138 3 3 100 19 339 56 89
14 214 13 234 -2z m5653 -49 c50 -86 157 -291 166 -318 4 -14 11 -43 16 -66
l8 -41 -126 58 c-122 55 -126 58 -143 101 -9 23 -17 55 -17 70 -1 15 -5 29
-10 32 -4 3 -6 -25 -3 -63 l4 -68 -104 34 -105 34 -10 57 c-11 57 -11 57 24
100 58 71 150 119 233 121 33 1 38 -3 67 -51z m-6351 -60 c9 -18 50 -66 91
-105 41 -40 72 -73 68 -73 -19 0 -146 57 -191 85 -44 28 -114 101 -114 119 0
3 29 6 65 6 63 0 65 -1 81 -32z m757 -110 c-17 -35 -33 -73 -37 -86 -7 -21
-12 -22 -54 -16 -26 4 -50 8 -54 11 -11 6 25 74 85 162 l51 74 19 -41 20 -41
-30 -63z m5837 -254 c24 -38 23 -55 -2 -27 -16 18 -33 63 -24 63 2 0 14 -16
26 -36z m-5960 -36 c0 -7 -12 -40 -26 -73 -14 -33 -26 -67 -26 -75 -1 -8 -19
-62 -41 -120 -52 -138 -63 -174 -97 -305 -34 -127 -39 -119 -11 16 26 122 53
209 96 303 19 42 33 76 30 76 -10 0 -96 -172 -120 -242 -46 -131 -44 -101 11
132 19 80 46 180 60 223 l26 77 49 0 c33 0 49 -4 49 -12z m15955 -100 c32 -46
69 -94 81 -108 45 -51 161 -260 232 -418 102 -227 174 -433 231 -663 65 -258
78 -361 61 -465 -23 -146 -99 -434 -120 -457 -15 -17 -21 69 -9 143 17 113 20
490 4 580 -7 41 -20 127 -30 190 -21 144 -71 338 -129 500 -45 126 -101 270
-117 299 -4 9 -33 68 -63 131 -30 63 -93 173 -140 244 -94 140 -94 155 -1 24z
m483 -253 c-3 -3 -9 2 -12 12 -6 14 -5 15 5 6 7 -7 10 -15 7 -18z m68 -213
c14 -52 24 -96 22 -98 -4 -3 -75 234 -84 281 -9 43 38 -95 62 -183z m-14430
-152 c12 -52 21 -96 20 -98 -3 -3 -76 183 -76 194 0 3 7 4 16 2 12 -2 23 -30
40 -98z m-119 68 c-3 -8 -6 -5 -6 6 -1 11 2 17 5 13 3 -3 4 -12 1 -19z m-184
-228 c10 -36 17 -115 20 -225 l4 -170 -19 90 c-16 75 -37 404 -24 370 2 -5 11
-35 19 -65z m267 -95 c0 -5 -5 -3 -10 5 -5 8 -10 20 -10 25 0 6 5 3 10 -5 5
-8 10 -19 10 -25z m14507 -207 c-3 -8 -6 -5 -6 6 -1 11 2 17 5 13 3 -3 4 -12
1 -19z m10 -70 c-3 -8 -6 -5 -6 6 -1 11 2 17 5 13 3 -3 4 -12 1 -19z m-14493
-188 c28 -36 85 -102 127 -147 62 -67 78 -92 92 -140 9 -32 31 -107 48 -168
36 -129 74 -229 128 -340 21 -44 37 -82 35 -84 -9 -10 -84 62 -161 153 -129
152 -246 376 -335 641 -24 73 -68 242 -68 263 0 8 19 -14 41 -49 23 -35 65
-93 93 -129z m1846 -2225 c29 -39 41 -59 25 -45 -15 14 -45 52 -67 85 -49 73
-31 55 42 -40z m-2248 -1635 c33 -68 35 -105 8 -120 -32 -17 -57 -3 -74 41
-16 40 -22 120 -9 133 20 19 49 -2 75 -54z m110 -27 c11 -9 18 -11 18 -5 0 20
46 13 65 -8 15 -16 17 -26 9 -48 -13 -37 -50 -42 -66 -8 -10 24 -13 25 -29 10
-35 -31 -83 14 -65 61 7 20 45 19 68 -2z m451 -49 c121 -27 153 -56 110 -99
-22 -22 -53 -17 -217 37 -169 56 -177 74 -33 77 37 0 100 -6 140 -15z m233
-12 c30 -20 44 -91 24 -122 -6 -9 -10 -10 -10 -3 0 7 -12 18 -27 25 -21 10
-29 22 -31 46 -5 45 17 72 44 54z m364 -49 c12 -27 20 -32 45 -30 29 2 30 0
30 -39 0 -26 7 -49 18 -61 21 -24 22 -56 1 -74 -14 -11 -21 -10 -47 4 -21 13
-33 15 -41 7 -17 -17 -55 -11 -66 9 -13 26 -13 177 1 202 15 28 41 20 59 -18z
m371 -120 c18 -11 29 -26 29 -40 0 -28 -8 -32 -47 -21 -37 10 -57 53 -32 69
18 11 16 12 50 -8z m739 -2 c15 -30 12 -87 -6 -102 -14 -11 -19 -10 -35 10
-23 28 -24 59 -3 89 19 27 30 28 44 3z m-862 -13 c20 -20 15 -66 -9 -73 -31
-10 -64 25 -55 59 7 28 42 36 64 14z m602 -9 c41 -9 51 -15 56 -36 4 -16 1
-30 -9 -40 -14 -14 -29 -14 -159 0 -153 16 -198 28 -198 51 0 8 12 19 28 24
37 14 219 15 282 1z m415 -59 c0 -30 -32 -51 -45 -30 -13 21 -12 26 6 45 21
21 39 14 39 -15z m-75 -16 c0 -16 -16 -19 -25 -4 -8 13 4 32 16 25 5 -4 9 -13
9 -21z m-3280 -334 c22 -12 26 -50 8 -68 -18 -18 -69 -14 -105 8 -34 21 -42
47 -20 69 13 14 84 9 117 -9z m-160 -246 c0 -2 -7 -4 -15 -4 -8 0 -15 4 -15
10 0 5 7 7 15 4 8 -4 15 -8 15 -10z m9364 -1073 c-8 -8 -21 13 -28 44 -6 30
-6 30 13 -5 11 -19 17 -37 15 -39z m616 -1405 c0 -3 -4 -8 -10 -11 -5 -3 -10
-1 -10 4 0 6 5 11 10 11 6 0 10 -2 10 -4z m1113 -2778 c-49 -57 -115 -136
-146 -177 -31 -40 -57 -70 -57 -67 0 4 18 42 39 85 28 54 54 91 88 119 26 23
73 66 103 96 30 29 57 53 58 51 2 -2 -36 -50 -85 -107z m-186 -163 c-20 -30
-26 -33 -31 -19 -5 12 2 25 21 40 37 29 40 23 10 -21z m134 16 c-23 -32 -131
-221 -131 -229 0 -9 -62 -113 -66 -110 -2 2 1 20 6 39 4 19 14 60 20 92 11 54
19 65 97 148 47 49 88 89 90 89 2 0 -5 -13 -16 -29z"/>
<path d="M6831 21834 c0 -11 3 -14 6 -6 3 7 2 16 -1 19 -3 4 -6 -2 -5 -13z"/>
<path d="M15785 15057 c11 -9 23 -17 26 -17 17 0 191 -116 252 -167 245 -203
320 -399 321 -840 1 -111 4 -196 7 -190 16 28 40 213 46 342 10 237 -20 369
-118 510 -28 41 -76 96 -107 122 -32 26 -61 53 -67 59 -30 35 -291 176 -350
189 -29 7 -29 7 -10 -8z"/>
<path d="M15885 13723 c19 -32 46 -94 62 -138 26 -75 27 -90 27 -250 0 -163
-2 -176 -38 -320 -94 -374 -230 -619 -435 -789 -147 -121 -254 -180 -423 -237
-186 -62 -293 -70 -349 -26 -30 23 -43 89 -31 153 19 94 64 158 217 310 239
239 327 379 366 583 14 74 4 150 -38 271 -63 186 -95 228 -137 182 -15 -18
-15 -23 15 -93 17 -41 42 -110 56 -154 44 -141 31 -320 -34 -455 -58 -122
-108 -177 -295 -322 -146 -113 -190 -165 -218 -256 -48 -156 -3 -281 112 -313
108 -29 373 62 641 220 110 65 249 174 315 246 231 253 374 686 343 1043 -16
182 -51 273 -140 367 -48 52 -55 43 -16 -22z"/>
<path d="M6560 12650 c-64 -7 -120 -26 -120 -40 0 -11 39 -20 85 -20 22 0 63
-3 91 -6 46 -6 52 -10 62 -38 7 -18 12 -40 12 -50 0 -9 4 -15 8 -12 4 2 6 -11
4 -29 -4 -35 12 -62 36 -59 6 1 18 2 26 3 25 2 53 60 51 102 -2 37 -1 38 24
32 14 -3 39 -12 54 -20 51 -26 43 -2 -18 56 -82 77 -167 99 -315 81z"/>
<path d="M20801 12344 c-16 -19 -6 -104 12 -104 29 0 57 32 57 64 0 51 -38 74
-69 40z"/>
<path d="M13985 11752 c-21 -53 -46 -115 -55 -137 -10 -22 -41 -99 -69 -172
-28 -73 -57 -147 -66 -165 -8 -18 -39 -98 -69 -178 -30 -80 -61 -158 -69 -175
-8 -16 -38 -86 -65 -155 -28 -69 -59 -143 -70 -165 -10 -22 -32 -69 -48 -105
-29 -67 -179 -365 -228 -455 -16 -27 -44 -79 -64 -115 -59 -108 -177 -282
-246 -362 -169 -198 -652 -583 -1171 -933 -372 -251 -440 -297 -455 -313 -21
-21 30 9 350 206 680 419 1005 655 1270 922 276 279 521 750 801 1544 32 92
62 172 64 177 5 8 85 235 190 543 25 71 43 131 42 133 -2 2 -21 -41 -42 -95z"/>
<path d="M6266 11194 c-16 -43 41 -233 93 -308 16 -22 76 -87 133 -142 l103
-102 80 -7 c44 -4 102 -10 130 -14 l49 -6 -50 -36 c-85 -61 -182 -158 -193
-192 -25 -79 -42 -250 -39 -379 3 -128 4 -135 37 -198 29 -57 119 -166 128
-156 2 2 -33 75 -77 162 -79 153 -82 160 -75 209 10 83 39 185 43 153 4 -31
23 -51 44 -43 7 3 22 22 33 43 36 68 170 188 265 234 l85 43 245 3 c238 4 329
-4 370 -30 11 -7 10 -8 -7 -5 -32 7 -29 -8 5 -21 107 -41 216 -62 255 -49 21
7 27 15 27 38 0 44 -24 52 -305 103 -44 7 -165 41 -270 74 -104 33 -215 66
-245 72 -94 21 -141 46 -405 215 -27 18 -68 41 -90 52 -22 10 -49 24 -60 30
-11 5 -38 18 -60 29 -22 10 -51 26 -65 35 -14 9 -36 20 -49 24 -24 7 -24 6
-18 -40 5 -32 19 -64 44 -97 39 -54 22 -54 -30 -1 -36 39 -95 183 -103 256 -7
60 -17 79 -28 51z m434 -746 c0 -23 -37 -94 -45 -86 -6 6 15 81 27 96 15 17
18 15 18 -10z"/>
<path d="M6786 9533 c127 -118 232 -309 254 -461 12 -87 12 -284 0 -552 -7
-141 -7 -295 -1 -450 9 -211 12 -243 36 -318 52 -162 144 -258 340 -352 296
-143 459 -179 867 -189 l258 -6 -82 -95 c-45 -52 -99 -117 -120 -144 -22 -27
-61 -75 -88 -105 -27 -31 -89 -103 -138 -161 -106 -125 -223 -236 -405 -384
-32 -26 -66 -55 -76 -64 -10 -9 -51 -46 -92 -82 -149 -131 -204 -187 -285
-297 -130 -175 -257 -437 -346 -713 -24 -75 -25 -76 -254 -315 -262 -273 -281
-302 -345 -530 -43 -153 -76 -264 -112 -375 -26 -81 -37 -102 -76 -140 -85
-82 -167 -193 -251 -340 -152 -265 -309 -505 -511 -780 -51 -69 -114 -154
-140 -190 -26 -36 -119 -171 -206 -300 -263 -390 -374 -531 -578 -730 -133
-130 -140 -146 -120 -241 8 -40 11 -77 7 -84 -4 -7 -32 -41 -63 -76 -31 -35
-100 -116 -154 -179 -53 -63 -109 -128 -124 -145 -27 -30 -142 -166 -216 -255
-22 -27 -74 -87 -115 -135 -41 -47 -93 -108 -115 -134 -22 -27 -64 -76 -93
-109 -30 -33 -60 -70 -69 -81 -13 -20 -13 -21 21 -21 39 0 35 -4 360 390 97
118 194 235 215 260 21 25 60 71 85 103 26 33 56 69 66 80 99 118 131 158 172
208 l46 59 17 -50 c9 -27 30 -77 46 -110 16 -33 29 -63 29 -66 0 -17 157 -315
205 -390 105 -163 193 -254 383 -397 l117 -87 3438 0 3438 0 -27 48 c-15 26
-36 62 -46 79 -60 101 -191 401 -261 598 -66 184 -135 431 -157 562 -25 151
-38 856 -20 1138 20 321 30 664 40 1310 5 341 14 679 19 750 6 72 15 193 20
270 18 251 32 429 39 505 l7 75 42 -105 c48 -123 99 -285 116 -369 29 -140 30
-26 2 144 -7 44 -19 116 -25 160 -18 114 -53 243 -109 402 -80 225 -106 287
-138 334 -16 24 -46 74 -66 111 -84 151 -214 346 -304 454 -29 35 -53 66 -53
69 0 10 160 -105 243 -175 42 -36 110 -104 149 -152 105 -128 104 -122 -3 37
-108 159 -223 284 -389 421 -81 67 -242 184 -253 184 -3 0 -43 23 -89 51 -143
89 -287 151 -513 221 -349 108 -498 145 -657 164 -32 3 -58 10 -58 13 0 4 30
15 68 23 124 29 404 112 482 143 19 8 91 34 160 59 69 24 175 64 235 88 61 25
148 59 195 77 47 18 103 41 125 51 22 10 89 38 148 61 59 23 106 43 104 45 -6
6 -38 -5 -427 -146 -542 -197 -814 -274 -1285 -363 -56 -11 -111 -14 -182 -10
-70 4 -103 2 -103 -5 0 -6 8 -12 18 -14 42 -10 -373 -23 -698 -23 -300 0 -371
3 -460 18 -138 25 -348 94 -487 162 -90 44 -124 67 -176 119 -75 77 -120 156
-147 260 -16 65 -18 90 -10 198 5 68 17 283 26 478 25 520 13 629 -89 782 -51
77 -193 226 -239 251 -32 18 -32 18 8 -20z"/>
</g>
</svg>
